<?xml version="1.0" encoding="utf-8"?>
<!-- Generator: Adobe Illustrator 25.4.1, SVG Export Plug-In . SVG Version: 6.00 Build 0)  -->
<svg version="1.1" id="Capa_1" xmlns="http://www.w3.org/2000/svg" xmlns:xlink="http://www.w3.org/1999/xlink" x="0px" y="0px"
	 viewBox="0 0 356.55 335.71" style="enable-background:new 0 0 356.55 335.71;" xml:space="preserve">
<style type="text/css">
	.st0{fill:#FFFFFF;}
</style>
<g>
	<path d="M0,8.91C4.11,0.07,9.04-1.89,18.17,1.7c16.08,6.32,32.09,12.79,48.25,18.87c6.14,2.31,9.16,6.25,10.31,12.63
		c8.56,47.36,17.32,94.68,26.01,142.02c1.78,9.7,3.64,19.38,5.26,29.1c0.44,2.66,1.37,3.61,4.19,3.6
		c57.95-0.08,115.89-0.07,173.84-0.02c2.28,0,3.48-0.51,4.24-2.9c12.89-40.54,25.89-81.04,38.86-121.55
		c0.17-0.54,0.3-1.09,0.56-2.06c-3.17-0.2-6.13-0.43-9.1-0.56C263.64,78.4,206.69,76,149.73,73.57c-8.47-0.36-16.93-0.79-25.4-1.19
		c-7-0.33-11.76-5.09-11.65-11.66c0.11-6.65,5.28-11.45,12.45-11.21c11.49,0.38,22.97,0.97,34.45,1.47
		c24.36,1.07,48.72,2.15,73.08,3.21c37.58,1.63,75.17,3.23,112.75,4.9c8.61,0.38,13.12,7.62,10.31,16.43
		c-6.26,19.66-12.6,39.29-18.9,58.94c-9.13,28.48-18.26,56.95-27.39,85.43c-2.73,8.52-5.79,10.8-14.64,10.8
		c-55.27,0-110.55,0.03-165.82-0.08c-3.1-0.01-4.44,0.91-5.4,3.81c-2.68,8.13-5.71,16.14-8.85,24.89c1.83,0,3.26,0,4.68,0
		c58.18,0,116.36,0,174.53,0.01c1.51,0,3.03-0.02,4.52,0.17c5.2,0.66,8.84,4.72,8.72,9.61c-0.12,4.92-3.9,8.95-9.08,9.3
		c-3.43,0.23-6.89,0.04-11.09,0.04c7.33,9.27,10.18,19.11,7.84,30.09c-1.84,8.63-6.55,15.47-13.63,20.75
		c-12.85,9.58-30.97,8.4-43.48-3.22c-9.78-9.09-16.93-27.8-2.44-47.29c-24.59,0-48.97,0-73.85,0c7.83,10.43,10.61,21.64,6.26,34.04
		c-2.5,7.14-7,12.83-13.22,17.02c-13.51,9.12-31.58,7.4-43.15-4.17c-10.3-10.3-15.62-28.77-1.67-47.16c-2.42,0-4.42,0.01-6.41,0
		c-9.46-0.05-13.61-5.85-10.45-14.69c3.51-9.82,7.07-19.63,10.6-29.45c0.38-1.06,0.68-2.15,1.17-3.68c-1.94,0-3.53,0.04-5.11-0.01
		c-6.16-0.2-10.5-3.85-11.63-9.95c-3.76-20.3-7.46-40.6-11.19-60.91c-7.1-38.67-14.24-77.33-21.26-116.01
		c-0.43-2.39-1.41-3.52-3.61-4.37c-13.85-5.33-27.6-10.91-41.47-16.16C5.47,21.45,1.74,18.8,0,13.79C0,12.17,0,10.54,0,8.91z
		 M261.55,286.17c-8.42-0.07-15.39,6.73-15.45,15.09c-0.06,8.31,6.94,15.31,15.3,15.29c8.27-0.02,15.08-6.72,15.22-14.96
		C276.75,293.19,269.97,286.25,261.55,286.17z M150.63,301.25c-0.04-8.46-6.84-15.15-15.34-15.08c-8.3,0.07-14.96,6.76-15.01,15.08
		c-0.05,8.43,6.77,15.31,15.19,15.31C143.86,316.57,150.67,309.69,150.63,301.25z"/>
	<path class="st0" d="M261.55,286.17c8.42,0.07,15.21,7.02,15.07,15.41c-0.14,8.25-6.95,14.94-15.22,14.96
		c-8.36,0.02-15.36-6.98-15.3-15.29C246.16,292.91,253.13,286.1,261.55,286.17z"/>
	<path class="st0" d="M150.63,301.25c0.04,8.44-6.77,15.32-15.17,15.31c-8.41-0.01-15.24-6.89-15.19-15.31
		c0.05-8.32,6.71-15.01,15.01-15.08C143.79,286.1,150.6,292.79,150.63,301.25z"/>
</g>
</svg>
