<svg width="315" height="63" viewBox="0 0 315 63" fill="none" xmlns="http://www.w3.org/2000/svg">
<path d="M83.3043 61C82.1643 45.9357 82.1643 15.97 83.06 0.335707C77.7671 1.06856 67.4257 1.06856 62.1329 0.335707C55.7 16.7029 48.9414 32.5 41.3686 48.2157C34.04 32.5814 27.4443 16.6214 21.3371 0.335707C16.2071 1.06856 5.45857 1.06856 0.00285757 0.335707C0.980001 15.5629 0.980001 45.7729 0.00285757 61H14.7414C14.09 50.0886 13.8457 29.4057 13.9271 13.5271C21.4186 29.1614 28.4214 44.9586 34.7729 61.1629H47.72C54.2343 45.04 61.2371 28.9986 68.81 13.2014C69.0543 31.6043 68.81 50.4143 68.1586 61H83.3043ZM146.469 45.8543C141.176 50.17 131.079 52.7757 123.262 52.9386C111.536 53.1014 106.406 48.2157 105.348 40.6429C113.735 40.3986 127.659 40.3986 146.144 40.7243C147.854 24.3571 135.069 15.6443 118.784 15.6443C102.254 15.6443 91.8308 24.2757 91.8308 38.9329C91.8308 53.4271 102.009 62.14 121.796 62.14C130.509 62.14 139.548 60.43 146.469 57.01C145.736 53.9971 145.736 48.9486 146.469 45.8543ZM118.784 24.3571C126.601 24.3571 131.894 28.6729 132.871 36.7343C123.344 36.8971 113.002 36.8971 105.185 36.6529C105.592 28.5914 110.641 24.3571 118.784 24.3571ZM180.417 62.14C195.563 62.14 204.846 57.9871 204.846 47.8086C204.846 27.2886 166.249 41.62 166.249 29.8129C166.249 25.9043 170.076 24.2757 178.3 24.2757C187.99 24.2757 196.052 26.9629 202.566 30.22C201.345 25.4971 201.263 22.3214 202.322 19.39C194.586 17.2729 188.235 15.8071 179.033 15.8071C169.75 15.8071 153.465 16.8657 153.465 29.8129C153.465 49.8443 191.817 36.6529 191.817 47.6457C191.817 51.2286 187.827 53.1829 180.01 53.1829C170.727 53.1829 159.735 50.4957 154.442 46.2614C155.5 48.7043 155.5 53.9971 154.442 57.01C161.282 60.5114 171.216 62.14 180.417 62.14ZM231.479 25.0086C239.215 25.0086 246.951 25.3343 253.791 25.9857C253.465 22.5657 253.465 20.53 253.791 17.1914C247.032 17.8429 239.297 18.1686 231.642 18.1686C231.724 12.55 231.887 6.85 232.049 1.47571C228.059 3.43 223.499 4.16285 218.125 4.73285C218.532 8.23428 218.777 12.9571 219.021 17.9243C215.031 17.7614 211.122 17.5171 207.458 17.1914C207.784 19.5529 207.784 23.6243 207.458 25.9857C211.204 25.66 215.112 25.4157 219.265 25.2529C219.509 34.2914 219.509 42.9229 219.509 45.9357C219.509 58.3129 228.385 61.8957 237.912 61.9771C243.531 61.9771 249.312 60.7557 253.628 59.4529C252.977 56.44 253.139 53.2643 253.791 50.2514C250.127 51.2286 245.567 52.5314 241.495 52.45C235.632 52.3686 230.909 49.6814 231.072 40.0729C231.154 35.5943 231.317 30.3829 231.479 25.0086ZM286.444 62.14C304.196 62.14 314.7 53.5086 314.7 38.9329C314.7 24.3571 304.196 15.8071 286.444 15.8071C268.612 15.8071 258.107 24.3571 258.107 38.9329C258.107 53.5086 268.612 62.14 286.444 62.14ZM286.444 53.9971C276.917 53.9971 271.462 48.5414 271.462 38.9329C271.462 30.0571 276.917 24.52 286.444 24.52C295.809 24.52 301.346 30.0571 301.346 38.9329C301.346 48.5414 295.809 53.9971 286.444 53.9971Z" fill="#0000FF"/>
</svg>
